<svg viewBox="0 0 772 743" xmlns="http://www.w3.org/2000/svg">
  <g troke="none" stroke-width="1" fill="none" fill-rule="evenodd" stroke-linecap="round" stroke-linejoin="round">
    <g stroke="#000000" stroke-width="50">
      <g transform="translate(52.6667, 37.6667)">
        <path d="M333.333333,666.666667 C517.426667,666.666667 666.666667,517.426667 666.666667,333.333333 C666.666667,149.238333 517.426667,0 333.333333,0 C149.238333,0 0,149.238333 0,333.333333 C0,517.426667 149.238333,666.666667 333.333333,666.666667 Z" ></path>
        <path d="M166.666667,233.333333 L333.333333,266.666667 M500,233.333333 L333.333333,266.666667 M333.333333,266.666667 L333.333333,366.666667 M333.333333,366.666667 L266.666667,533.333333 M333.333333,366.666667 L400,533.333333" ></path>
        <path d="M333.333333,166.666667 C324.13,166.666667 316.666667,159.204667 316.666667,150 C316.666667,140.795333 324.13,133.333333 333.333333,133.333333 C342.536667,133.333333 350,140.795333 350,150 C350,159.204667 342.536667,166.666667 333.333333,166.666667 Z" fill="#000000" fill-rule="nonzero"></path>
      </g>
    </g>
  </g>
</svg>