<svg viewBox="0 0 40 40">
    <g  stroke="none" stroke-width="1" fill="none" fill-rule="evenodd">
        <g id="arrow_circle_right_FILL0_wght400_GRAD0_opsz48" fill="#000000" fill-rule="nonzero">
            <path d="M20,27.3 L27.3,20 L20,12.7 L17.9,14.8 L21.6,18.5 L12.5,18.5 L12.5,21.5 L21.6,21.5 L17.9,25.2 L20,27.3 Z M20,40 C17.2666667,40 14.6833333,39.475 12.25,38.425 C9.81666667,37.375 7.69166667,35.9416667 5.875,34.125 C4.05833333,32.3083333 2.625,30.1833333 1.575,27.75 C0.525,25.3166667 0,22.7333333 0,20 C0,17.2333333 0.525,14.6333333 1.575,12.2 C2.625,9.76666667 4.05833333,7.65 5.875,5.85 C7.69166667,4.05 9.81666667,2.625 12.25,1.575 C14.6833333,0.525 17.2666667,0 20,0 C22.7666667,0 25.3666667,0.525 27.8,1.575 C30.2333333,2.625 32.35,4.05 34.15,5.85 C35.95,7.65 37.375,9.76666667 38.425,12.2 C39.475,14.6333333 40,17.2333333 40,20 C40,22.7333333 39.475,25.3166667 38.425,27.75 C37.375,30.1833333 35.95,32.3083333 34.15,34.125 C32.35,35.9416667 30.2333333,37.375 27.8,38.425 C25.3666667,39.475 22.7666667,40 20,40 Z M20,37 C24.7333333,37 28.75,35.3416667 32.05,32.025 C35.35,28.7083333 37,24.7 37,20 C37,15.2666667 35.35,11.25 32.05,7.95 C28.75,4.65 24.7333333,3 20,3 C15.3,3 11.2916667,4.65 7.975,7.95 C4.65833333,11.25 3,15.2666667 3,20 C3,24.7 4.65833333,28.7083333 7.975,32.025 C11.2916667,35.3416667 15.3,37 20,37 Z" id="Shape"></path>
        </g>
    </g>
</svg>