<svg viewBox="0 0 44 32">
    <g  stroke="none" stroke-width="1" fill="none" fill-rule="evenodd">
        <g id="backup_FILL0_wght400_GRAD0_opsz48" transform="translate(0.000000, 0.050000)" fill="#000000" fill-rule="nonzero">
            <path d="M10.5,31.95 C7.63333333,31.95 5.16666667,30.9166667 3.1,28.85 C1.03333333,26.7833333 0,24.3166667 0,21.45 C0,18.85 0.825,16.5583333 2.475,14.575 C4.125,12.5916667 6.25,11.4 8.85,11 C9.51666667,7.76666667 11.0833333,5.125 13.55,3.075 C16.0166667,1.025 18.8666667,3.55271368e-15 22.1,3.55271368e-15 C25.8666667,3.55271368e-15 29.025,1.35833333 31.575,4.075 C34.125,6.79166667 35.4,10.05 35.4,13.85 L35.4,15.05 C37.8,14.9833333 39.8333333,15.7583333 41.5,17.375 C43.1666667,18.9916667 44,21.0333333 44,23.5 C44,25.8 43.1666667,27.7833333 41.5,29.45 C39.8333333,31.1166667 37.85,31.95 35.55,31.95 L23.5,31.95 C22.7,31.95 22,31.65 21.4,31.05 C20.8,30.45 20.5,29.75 20.5,28.95 L20.5,16.05 L16.35,20.2 L14.2,18.05 L22,10.25 L29.8,18.05 L27.65,20.2 L23.5,16.05 L23.5,28.95 L35.55,28.95 C37.05,28.95 38.3333333,28.4166667 39.4,27.35 C40.4666667,26.2833333 41,25 41,23.5 C41,22 40.4666667,20.7166667 39.4,19.65 C38.3333333,18.5833333 37.05,18.05 35.55,18.05 L32.4,18.05 L32.4,13.85 C32.4,10.8833333 31.3916667,8.33333333 29.375,6.2 C27.3583333,4.06666667 24.8666667,3 21.9,3 C18.9333333,3 16.4333333,4.06666667 14.4,6.2 C12.3666667,8.33333333 11.35,10.8833333 11.35,13.85 L10.4,13.85 C8.33333333,13.85 6.58333333,14.575 5.15,16.025 C3.71666667,17.475 3,19.2666667 3,21.4 C3,23.4666667 3.73333333,25.2416667 5.2,26.725 C6.66666667,28.2083333 8.43333333,28.95 10.5,28.95 L17.5,28.95 L17.5,31.95 L10.5,31.95 Z" id="Path"></path>
        </g>
    </g>
</svg>