
<svg viewBox="0 0 2500 1635.53711">
    <g id="Page-1" stroke="none" stroke-width="1" fill="none" fill-rule="evenodd">
        <g id="Group" fill="#000000" fill-rule="nonzero">
            <path d="M2134.9707,1578.31055 C2097.73701,1578.32681 2066.0179,1551.26861 2060.16577,1514.49768 C2054.31364,1477.72676 2076.06569,1442.15856 2111.46484,1430.61523 C2255.49805,1383.47656 2348.54492,1257.23633 2348.54492,1108.98438 C2348.54492,921.230469 2195.81055,768.476563 2008.06641,768.476563 C1995.01953,768.476563 1980.98633,769.501953 1963.90625,771.71875 L1889.88281,781.318359 L1879.24805,707.392578 C1833.75,390.439453 1557.64648,151.416016 1236.99219,151.416016 C971.904297,151.416016 735.908203,310.107422 635.830078,555.732422 L616.982422,601.943359 L567.119141,602.851563 C337.929687,607.060547 151.474609,796.875 151.474609,1025.94727 C151.474609,1193.17383 248.564453,1345.67383 398.808594,1414.44336 C436.832103,1431.84518 453.549283,1476.77629 436.147459,1514.7998 C418.745636,1552.82331 373.814526,1569.54049 335.791016,1552.13867 C131.796875,1458.78906 0,1252.24609 0,1025.95703 C0,731.474609 226.894531,484.794922 515.087891,454.492188 C647.880859,176.826172 926.191406,0 1236.96289,0 C1608.93555,0 1932.28516,260.791016 2016.13281,617.138672 C2283.67188,621.474609 2500,840.449219 2500,1109.00391 C2500,1320.625 2362.77344,1507.69531 2158.56445,1574.53125 C2150.75195,1577.08008 2142.79297,1578.31055 2134.9707,1578.31055 Z" id="Path"></path>
            <path d="M976.728516,1611.06445 L976.689453,1611.04492 L976.621094,1611.02539 L976.601562,1611.02539 L976.582031,1611.00586 L976.5625,1610.98633 C976.5625,1610.98633 976.542969,1610.98633 976.542969,1610.9668 L976.523438,1610.9668 L976.503906,1610.94727 C976.523438,1610.92773 976.484375,1610.92773 976.484375,1610.92773 L976.464844,1610.9082 L976.445313,1610.9082 L976.425781,1610.88867 L976.40625,1610.86914 L976.347656,1610.84961 L976.328125,1610.83008 L976.308594,1610.81055 L976.289063,1610.79102 L976.230469,1610.77148 C976.210938,1610.79102 976.210938,1610.75195 976.191406,1610.75195 L976.171875,1610.73242 L976.132813,1610.71289 L976.113281,1610.69336 C976.09375,1610.67383 976.054688,1610.67383 976.035156,1610.67383 L975.957031,1610.6543 L975.917969,1610.63477 L975.898438,1610.63477 C975.878906,1610.61523 975.859375,1610.61523 975.830078,1610.61523 C975.810547,1610.5957 975.771484,1610.5957 975.771484,1610.5957 L975.751953,1610.5957 L975.712891,1610.57617 C975.693359,1610.57617 975.693359,1610.55664 975.693359,1610.55664 L975.673828,1610.55664 C974.479975,1610.12997 973.229328,1609.88313 971.962891,1609.82422 L971.845703,1609.82422 L971.787109,1609.82422 L971.767578,1609.80469 L971.5625,1609.80469 L971.582031,1609.80469 L971.425781,1609.80469 C938.701172,1609.80469 911.923828,1583.16406 911.728516,1550.51758 L911.728516,885.185547 L962.714844,885.185547 C970.478516,885.517578 975.771484,879.541016 975.771484,872.373047 C975.771484,867.011719 972.490234,862.431641 967.832031,860.517578 L723.183594,691.660156 C718.79993,688.639935 713.006711,688.639935 708.623047,691.660156 L462.060547,861.835938 C457.470963,865.03463 455.482537,870.838026 457.146083,876.179236 C458.809629,881.520447 463.741727,885.168413 469.335937,885.195312 L520.3125,885.195312 L520.361328,1550.69336 C520.615234,1596.69922 557.568359,1634.24805 604.589844,1635.43945 C605.126953,1635.49805 605.634766,1635.53711 606.171875,1635.53711 L971.621094,1635.53711 C974.980469,1635.47852 978.027344,1634.13086 980.283203,1631.97266 L980.302734,1631.95312 L980.400391,1631.85547 C980.419922,1631.83594 980.439453,1631.83594 980.458984,1631.79687 L980.478516,1631.77734 L980.498047,1631.75781 L980.517578,1631.73828 L980.537109,1631.71875 L980.556641,1631.69922 L980.576172,1631.67969 C980.615234,1631.66016 980.595703,1631.66016 980.615234,1631.64062 L980.634766,1631.62109 L980.654297,1631.60156 L980.673828,1631.58203 C982.890625,1629.28711 984.277344,1626.18164 984.287109,1622.74414 L984.287109,1622.54883 C984.182637,1617.58664 981.244802,1613.12295 976.728516,1611.06445 L976.728516,1611.06445 Z" id="Path"></path>
            <path d="M1505.12695,1611.06445 L1505.08789,1611.04492 L1505.0293,1611.02539 L1505,1611.02539 L1504.98047,1611.00586 L1504.96094,1610.98633 L1504.94141,1610.98633 L1504.92188,1610.9668 L1504.90234,1610.94727 C1504.92188,1610.92773 1504.88281,1610.92773 1504.86328,1610.92773 L1504.84375,1610.9082 L1504.82422,1610.9082 C1504.80469,1610.9082 1504.80469,1610.88867 1504.80469,1610.88867 C1504.76562,1610.9082 1504.76562,1610.86914 1504.76562,1610.86914 L1504.72656,1610.84961 L1504.70703,1610.83008 L1504.6875,1610.83008 L1504.66797,1610.81055 L1504.64844,1610.79102 L1504.60937,1610.77148 C1504.58984,1610.79102 1504.58984,1610.75195 1504.55078,1610.75195 L1504.53125,1610.73242 L1504.51172,1610.71289 L1504.47266,1610.69336 C1504.45312,1610.67383 1504.41406,1610.67383 1504.39453,1610.67383 L1504.31641,1610.6543 L1504.27734,1610.63477 L1504.23828,1610.61523 L1504.19922,1610.5957 L1504.15039,1610.57617 C1504.0918,1610.57617 1504.13086,1610.57617 1504.11133,1610.55664 L1504.07227,1610.53711 L1504.05273,1610.51758 L1504.0332,1610.51758 C1502.83935,1610.09091 1501.5887,1609.84407 1500.32227,1609.78516 L1500.16602,1609.78516 L1500.14648,1609.76562 L1499.74609,1609.76562 C1467.03125,1609.76562 1440.26367,1583.125 1440.06836,1550.47852 L1440.06836,1034.16992 L1491.03516,1034.16992 C1497.27414,1034.46096 1502.81258,1030.20767 1504.14137,1024.10489 C1505.47016,1018.00211 1502.20145,1011.83118 1496.40625,1009.50195 L1251.74805,840.654297 C1247.36221,837.629588 1241.56357,837.629588 1237.17773,840.654297 L990.712891,1010.81055 C986.123307,1014.00924 984.134881,1019.81264 985.798427,1025.15385 C987.461973,1030.49506 992.394071,1034.14302 997.988281,1034.16992 L1048.74023,1034.16992 L1048.7793,1550.67383 C1048.99414,1596.69922 1086.01563,1634.26758 1133.05664,1635.43945 C1133.56445,1635.49805 1134.07227,1635.51758 1134.58984,1635.51758 L1500.04883,1635.51758 C1503.4082,1635.45898 1506.44531,1634.11133 1508.70117,1631.95312 L1508.7207,1631.93359 C1508.75977,1631.89453 1508.83789,1631.85547 1508.81836,1631.83594 C1508.83789,1631.81641 1508.85742,1631.81641 1508.87695,1631.77734 L1508.89648,1631.75781 L1508.91602,1631.73828 L1508.93555,1631.71875 C1508.93555,1631.71875 1508.95508,1631.71875 1508.95508,1631.69922 L1508.97461,1631.67969 C1508.99414,1631.67969 1508.99414,1631.66016 1508.99414,1631.66016 C1509.05273,1631.64062 1509.0332,1631.64062 1509.0332,1631.62109 L1509.05273,1631.60156 L1509.07227,1631.58203 L1509.0918,1631.5625 C1511.30859,1629.26758 1512.69531,1626.16211 1512.70508,1622.72461 L1512.70508,1622.5293 C1512.578,1617.57337 1509.63669,1613.1235 1505.12695,1611.06445 L1505.12695,1611.06445 Z" id="Path"></path>
            <path d="M2034.90234,1611.06445 L2034.86328,1611.04492 L2034.80469,1611.02539 L2034.78516,1611.02539 L2034.76562,1611.00586 L2034.74609,1610.98633 C2034.72656,1610.98633 2034.72656,1610.98633 2034.72656,1610.9668 L2034.70703,1610.9668 L2034.6875,1610.94727 L2034.66797,1610.92773 C2034.66797,1610.92773 2034.64844,1610.92773 2034.64844,1610.9082 L2034.62891,1610.9082 L2034.60937,1610.88867 C2034.58984,1610.9082 2034.58984,1610.86914 2034.57031,1610.86914 C2034.58984,1610.84961 2034.55078,1610.84961 2034.53125,1610.84961 L2034.51172,1610.83008 L2034.49219,1610.83008 L2034.47266,1610.81055 L2034.45312,1610.79102 L2034.41406,1610.77148 C2034.39453,1610.79102 2034.39453,1610.75195 2034.35547,1610.75195 L2034.33594,1610.73242 C2034.35547,1610.71289 2034.31641,1610.71289 2034.29687,1610.71289 C2034.29687,1610.71289 2034.27734,1610.71289 2034.27734,1610.69336 C2034.25781,1610.67383 2034.21875,1610.67383 2034.19922,1610.67383 L2034.11133,1610.6543 L2034.07227,1610.63477 L2034.0332,1610.61523 L2033.99414,1610.5957 L2033.95508,1610.57617 C2033.89648,1610.57617 2033.89648,1610.57617 2033.91602,1610.55664 C2033.89648,1610.55664 2033.89648,1610.53711 2033.89648,1610.53711 L2033.85742,1610.51758 L2033.83789,1610.51758 C2032.64404,1610.09091 2031.39339,1609.84407 2030.12695,1609.78516 L2029.94141,1609.78516 L2029.90234,1609.76562 L2029.6875,1609.76562 L2029.55078,1609.76562 L2029.62891,1609.76562 L2029.60937,1609.76562 C1996.89453,1609.76562 1970.12695,1583.125 1969.92187,1550.47852 L1969.92187,1183.0957 L2021.03516,1183.0957 C2028.24219,1182.92969 2034.0918,1177.4707 2034.0918,1170.30273 C2034.0918,1164.93164 2030.81055,1160.35156 2026.15234,1158.4375 L1781.48437,989.589844 C1777.10071,986.569623 1771.30749,986.569623 1766.92383,989.589844 L1520.36133,1159.74609 C1515.77174,1162.94479 1513.78332,1168.74818 1515.44686,1174.08939 C1517.11041,1179.4306 1522.04251,1183.07857 1527.63672,1183.10547 L1578.48633,1183.10547 L1578.52539,1550.67383 C1578.7793,1596.69922 1615.77148,1634.28711 1662.79297,1635.43945 C1663.30078,1635.49805 1663.81836,1635.51758 1664.33594,1635.51758 L2029.78516,1635.51758 C2033.14453,1635.45898 2036.19141,1634.11133 2038.44727,1631.95312 L2038.4668,1631.93359 C2038.50586,1631.89453 2038.56445,1631.85547 2038.56445,1631.83594 C2038.58398,1631.81641 2038.60352,1631.81641 2038.62305,1631.77734 L2038.64258,1631.75781 L2038.66211,1631.73828 L2038.68164,1631.71875 L2038.70117,1631.69922 L2038.7207,1631.67969 L2038.74023,1631.66016 C2038.79883,1631.64062 2038.75977,1631.64062 2038.7793,1631.62109 L2038.79883,1631.60156 L2038.81836,1631.58203 L2038.83789,1631.5625 C2041.05469,1629.26758 2042.43164,1626.16211 2042.45117,1622.72461 L2042.45117,1622.5293 C2042.34807,1617.57429 2039.41335,1613.11715 2034.90234,1611.06445 L2034.90234,1611.06445 Z" id="Path"></path>
        </g>
    </g>
</svg>