<svg viewBox="0 0 15.7933133 23.4622737" xmlns="http://www.w3.org/2000/svg">
  <g id="Page-1" stroke="none" stroke-width="1" fill="none" fill-rule="evenodd">
    <g id="house2" fill-rule="nonzero">
      <polygon id="Path" fill="#68BD45"
        points="2.86879314 4.32271588 2.44885817 3.55457801 1.62156992 3.83905536 1.73268112 2.97075401 0.896405946 2.71438126 1.49673322 2.07810624 0.970589012 1.37908607 1.83039362 1.21650424 1.81585113 0.342157136 2.60686483 0.716177044 3.10964301 7.10542736e-15 3.52957799 0.767320875 4.35686623 0.483497119 4.24542823 1.35130827 5.08186681 1.60784442 4.48137613 2.24428284 5.00735695 2.9439566 4.14738894 3.10572144 4.16193143 3.98006854 3.37091773 3.60604864">
      </polygon>
      <polygon id="Path" fill="#087F5D"
        points="15.5308948 8.32713084 12.3500099 5.91895898 12.3500099 3.66193103 10.7826884 3.66193103 10.7826884 4.73301032 8.6382422 3.10882602 7.89690174 2.54738766 7.15474429 3.10882602 0.262091713 8.32713084 0 8.52598721 1.38627562 9.91226283 14.4063841 9.91226283 15.7933133 8.52598721">
      </polygon>
      <polygon id="Path" fill="#68BD45"
        points="14.7962537 23.0885806 1.01029493 23.0885806 1.01029493 9.30278522 7.9032743 4.08415359 14.7962537 9.30278522">
      </polygon>
      <path
        d="M1.38415143,9.48807949 L1.38415143,22.7142339 L14.4220704,22.7142339 L14.4220704,9.48807949 L7.9029475,4.55327162 L1.38415143,9.48807949 Z M14.7959269,23.0885806 L14.7959269,22.7142339 L14.7959269,23.0885806 Z M0.636275019,23.4622737 L0.636275019,9.11667396 L7.9029475,3.61470877 L15.1702736,9.11602036 L15.1702736,23.4622737 L0.636275019,23.4622737 Z"
        id="Shape" fill="#FFFFFF"></path>
      <path
        d="M9.15441909,12.3866112 C8.41275183,13.4929847 6.0550702,15.9302415 6.30000504,21.941194 C6.8748421,21.941194 6.65507068,21.941194 6.65507068,21.941194 C6.65507068,21.941194 6.32549526,16.0323658 9.40164151,12.672886 C9.40164151,12.3866112 9.15441909,12.3866112 9.15441909,12.3866112 Z"
        id="Path" fill="#FFFFFF"></path>
      <path
        d="M6.52141045,13.1537687 C6.20310954,14.1277891 5.19248781,16.2743594 5.29771666,21.5678277 C5.54395868,21.5678277 5.44984096,21.5678277 5.44984096,21.5678277 C5.44984096,21.5678277 5.30850098,16.3645556 6.62761968,13.4065467 C6.62761968,13.1537687 6.52141045,13.1537687 6.52141045,13.1537687 Z"
        id="Path" fill="#FFFFFF"></path>
      <path
        d="M11.330728,14.9830185 C11.5972315,15.64364 12.4428204,17.0995235 12.354585,20.6902126 C12.1483757,20.6902126 12.2272974,20.6902126 12.2272974,20.6902126 C12.2272974,20.6902126 12.3457615,17.1604712 11.2421659,15.1544239 C11.2421659,14.9830185 11.330728,14.9830185 11.330728,14.9830185 Z"
        id="Path" fill="#FFFFFF"></path>
      <path
        d="M12.2888987,21.5872722 C12.4055655,21.3542654 12.5137355,21.0253436 12.5750101,20.6008335 C12.5330166,20.9503436 12.4589969,21.2851477 12.2888987,21.5872722 Z M5.01193211,21.3743635 C5.04265109,21.2104745 5.10310866,21.0134155 5.15719367,20.7725656 C5.17091917,21.0875986 5.1669976,21.2898863 5.01193211,21.3743635 Z M13.6022985,21.3393962 C13.6022985,21.0910299 14.7380837,20.0259964 13.886449,18.6764855 C14.0991943,20.2389051 13.637756,19.9194604 13.2117753,21.6233833 C12.856873,20.8070428 13.0699451,19.77714 13.495599,17.7534456 C12.7367749,18.4070409 12.6790951,19.2361265 12.6237029,20.0392317 C12.6611212,18.9103092 12.3802387,17.2967459 11.3304012,15.197888 C12.3954348,17.3274648 11.9696174,20.8418467 11.3304012,21.5872722 C10.9402048,20.4869445 10.8781133,18.0021386 11.2947803,16.4759936 C10.4070345,18.2503414 10.9045839,19.3508325 10.5849758,21.2326967 C10.0526224,20.7354741 10.1944526,20.0608004 9.98170733,18.996257 C9.69739338,20.4875981 10.4784398,21.6939716 10.0170015,21.1612914 C9.5555632,20.6292649 9.59134754,19.6003425 9.48464811,18.8892308 C9.30736039,20.0965847 9.69739338,21.2326967 9.2359551,21.2678275 C9.34265453,20.8057356 9.41373302,19.6003425 8.95245814,18.4990344 C9.12974587,19.0673355 9.09412492,19.4222378 8.77451682,21.1261607 C8.49085647,20.522402 8.56177156,19.2447866 8.84575871,17.8250143 C8.45556232,18.4990344 8.277621,19.387107 8.38448383,21.3393962 C8.10000648,21.054592 8.20654251,20.2389051 7.92288216,19.0673355 C7.85213046,20.0259964 8.20654251,21.6588409 7.9581763,21.3039386 C7.92271876,20.7358009 7.67386235,18.5704397 6.57402487,17.5052428 C7.56732632,18.6764855 7.31487513,20.0781206 7.67386235,21.5168473 C7.74101926,21.7828606 7.39036539,21.8712593 7.28366596,21.3393962 C7.17712992,20.8070428 7.23497311,20.5181537 7.24837181,19.670604 C6.96422126,20.6292649 7.35507124,21.7292657 6.9996788,21.054592 C6.64444976,20.3799183 6.5694497,19.6130876 6.46748883,18.3222369 C6.25425337,19.2096559 6.92892711,21.3393962 6.53840392,21.1972392 C6.53840392,20.5941341 6.39608355,18.6764855 5.50899134,17.114883 C6.00605056,18.5697861 6.64477656,22.0137431 5.86405698,21.4456054 C5.083174,20.8777945 5.2915075,19.6268131 5.43791285,18.5704397 C5.34183434,18.829917 5.27533102,19.0727277 5.23039634,19.2983815 C5.19330481,18.996257 5.12124593,18.6594921 5.00114779,18.2830212 C5.34559251,19.6174994 4.51716048,21.7969129 4.55065724,21.2678275 C4.58578798,20.7000166 4.69248741,20.2029573 4.83480779,19.3157017 C4.37353291,19.9549179 4.58578798,21.4807361 4.23088574,21.6233833 C4.47925195,20.7712584 4.7634025,18.8542634 3.94689858,16.6534447 C4.33742177,17.7183148 4.08905556,21.3743635 4.08905556,21.3743635 C3.64575455,20.9302455 3.6941206,18.947074 3.69853237,18.1090014 C3.30800918,19.2802442 4.1243497,21.836292 3.30800918,21.6939716 C3.69853237,20.9841671 3.30800918,19.0673355 2.63349884,16.2276274 C3.0418325,18.5746881 3.28137517,20.1853103 2.95327034,21.3393962 C2.14019779,20.0188069 1.57418427,17.2147197 2.03039378,15.6596531 C1.21519705,17.3807329 1.61568757,19.1621068 2.24330245,21.1264875 C2.50980593,21.9616189 2.05817158,22.1630896 1.38415143,22.0864556 L1.38415143,22.8210967 L14.4220704,22.8210967 L14.4220704,19.3495253 C14.0255014,20.1866175 14.1496845,21.2742 13.6022985,21.3393962 Z M5.00114779,18.2830212 C4.97582097,18.1846551 4.9449386,18.0898838 4.90539608,18.0021386 C4.94052683,18.0982171 4.9720628,18.1913544 5.00114779,18.2830212 Z"
        id="Shape" fill="#FFFFFF"></path>
      <path
        d="M10.2356291,11.6911858 L10.2225572,11.6839963 L10.2170016,11.698212 C10.0916747,11.9665128 9.7782758,12.0853038 9.51732788,11.9635717 C9.25605316,11.8415127 9.14624915,11.5254994 9.27124925,11.2570351 L9.2782754,11.2433096 L9.2643865,11.2375907 C8.99592223,11.1125906 8.87696789,10.7998452 8.99870001,10.5380803 C9.12059553,10.2772958 9.43660886,10.1666748 9.70523652,10.2920017 L9.71896202,10.2996814 L9.72451758,10.2853023 C9.84968108,10.0166747 10.1629166,9.89821053 10.4238645,10.0201061 C10.6848125,10.1420016 10.7951067,10.4580149 10.6699432,10.7263158 L10.6627536,10.7393877 L10.6769693,10.74527 C10.9452702,10.8705969 11.0638977,11.1836691 10.9424924,11.4452706 C10.8204335,11.7058917 10.50393,11.8158591 10.2356291,11.6911858 Z M11.4000091,10.4937992 L11.3717411,10.4818711 L11.38563,10.4544201 C11.6388982,9.91160924 11.4160222,9.27141265 10.8877538,9.02533402 C10.3594854,8.77892859 9.72598817,9.01928826 9.4725566,9.56209915 L9.46079188,9.59085735 L9.43383108,9.57680505 C8.89069339,9.32321007 8.2504968,9.54624947 8.00392797,10.0746813 C7.75768594,10.6026229 7.99820901,11.2364469 8.5413467,11.4895517 L8.5699415,11.5009896 L8.555399,11.5287674 C8.30213082,12.0715783 8.52468002,12.7117749 9.05327522,12.9581803 C9.58203381,13.2044223 10.2153676,12.9638993 10.4686358,12.4214152 L10.4802371,12.3924936 L10.5075247,12.4070361 C11.050499,12.6601408 11.6902054,12.4372649 11.9369377,11.9086697 C12.1836699,11.3805647 11.9429834,10.7467406 11.4000091,10.4937992 Z"
        id="Shape" fill="#FFFFFF"></path>
      <path
        d="M10.05491,11.2143881 C9.93203409,11.2609567 9.79412548,11.1990286 9.74788362,11.0761527 C9.70082475,10.9526231 9.76307971,10.8156949 9.88628242,10.7684727 C10.0089949,10.7222308 10.1467401,10.784159 10.1933088,10.9073617 C10.2397141,11.0302376 10.1777859,11.1678194 10.05491,11.2143881 Z"
        id="Path" fill="#FFFFFF"></path>
      <path
        d="M10.05491,11.2143881 L10.0475571,11.1952704 C10.0222302,11.2049109 9.99624983,11.2094861 9.97059621,11.2094861 C9.88268764,11.2094861 9.79968104,11.1558913 9.76700128,11.0689631 C9.75719735,11.0431461 9.75262218,11.0170023 9.75262218,10.9911853 C9.75262218,10.9034401 9.806217,10.8210871 9.89363537,10.7875903 C9.91879878,10.7781132 9.9446158,10.773538 9.97010602,10.773538 C10.0580146,10.773538 10.1411846,10.8272962 10.1741911,10.9145512 C10.1838317,10.939878 10.1882434,10.965695 10.1882434,10.9913487 C10.1882434,11.0792572 10.1346486,11.1622638 10.0475571,11.1952704 L10.05491,11.2143881 L10.0620996,11.2335057 C10.165531,11.1941266 10.2290932,11.0957605 10.2290932,10.9913487 C10.2290932,10.9609565 10.223701,10.9300741 10.2124265,10.9001721 C10.1732108,10.7964139 10.0745179,10.7326883 9.97010602,10.7326883 C9.93987723,10.7326883 9.90899486,10.7380805 9.87909287,10.749355 C9.77566142,10.7890609 9.71177248,10.8867734 9.71177248,10.9911853 C9.71177248,11.0219042 9.71732804,11.0531134 9.72876595,11.0835056 C9.76781827,11.1866103 9.86618436,11.2503358 9.97059621,11.2503358 C10.0009884,11.2503358 10.0320342,11.2447802 10.0620996,11.2335057 L10.05491,11.2143881 Z"
        id="Path" fill="#FFFFFF"></path>
      <path
        d="M6.56748891,12.9555659 L6.56226015,12.947396 L6.55458041,12.9537685 C6.39690054,13.0560562 6.18725985,13.0163503 6.08627938,12.8627554 C5.9859525,12.7088337 6.03203097,12.5005002 6.18987423,12.3970687 L6.19837097,12.3924936 L6.19248861,12.3839968 C6.08905716,12.226317 6.12990686,12.0163495 6.28333836,11.9163494 C6.43676986,11.8152055 6.64526675,11.8616108 6.74869821,12.0194541 L6.75376357,12.0274606 L6.76160672,12.0223952 C6.91928658,11.9184736 7.12876387,11.9593233 7.22990774,12.1129182 C7.33007122,12.2661863 7.28366596,12.4746832 7.12598609,12.5784414 L7.11765275,12.58318 L7.12353511,12.5911865 C7.22696657,12.7490298 7.18628026,12.9581803 7.03268536,13.0593242 C6.87958067,13.1601412 6.67092037,13.1138994 6.56748891,12.9555659 Z M7.60000608,12.6967422 L7.58807797,12.6810559 L7.60523484,12.671252 C7.92484294,12.4616113 8.01847047,12.0397155 7.81454874,11.7287676 C7.6109538,11.4184732 7.18677046,11.3359568 6.86732576,11.5457609 L6.85147607,11.5571988 L6.84101854,11.5405321 C6.63203145,11.2210874 6.21013569,11.1272965 5.89951452,11.3312182 C5.58840316,11.5351399 5.50654035,11.9593233 5.71618104,12.2781144 L5.72778236,12.2939641 L5.71062548,12.304585 C5.39134418,12.5137355 5.29771666,12.9354679 5.50147499,13.246089 C5.70523332,13.5568736 6.12908987,13.6388998 6.44886137,13.4294225 L6.46471105,13.4183114 L6.47435158,13.4346513 C6.68399228,13.7544228 7.10605144,13.8482137 7.4166726,13.644292 C7.72729376,13.4403702 7.80964677,13.0163503 7.60000608,12.6967422 Z"
        id="Shape" fill="#FFFFFF"></path>
      <path
        d="M6.62876347,12.636448 C6.54657386,12.6205983 6.49297905,12.5410231 6.50899214,12.4588335 C6.52500522,12.3763171 6.60441705,12.3223955 6.68693345,12.3380818 C6.76912306,12.354585 6.82288128,12.4346505 6.80703159,12.5166767 C6.7911819,12.5990297 6.71127988,12.6526245 6.62876347,12.636448 Z"
        id="Path" fill="#FFFFFF"></path>
      <path
        d="M6.62876347,12.636448 L6.63268504,12.61635 C6.5699399,12.6044218 6.52663921,12.5495198 6.52647581,12.4877551 L6.52892679,12.4627551 C6.5411817,12.3996831 6.59641051,12.3558922 6.65833866,12.3558922 L6.68317528,12.3580164 C6.74559363,12.3707615 6.78938452,12.4263171 6.78938452,12.4877551 L6.78693353,12.5129185 C6.77484202,12.5755003 6.71994002,12.6189643 6.65850206,12.6189643 L6.63284844,12.61635 L6.62876347,12.636448 L6.6248419,12.6567095 L6.65850206,12.659814 C6.73922108,12.659814 6.81111656,12.6027879 6.82696625,12.5205983 L6.83023422,12.4877551 C6.83023422,12.4070361 6.77304463,12.3346504 6.69101842,12.3179837 L6.65833866,12.3150425 C6.57712944,12.3150425 6.50490716,12.3722321 6.48889408,12.4547485 L6.4856261,12.4877551 C6.4856261,12.5686375 6.54265229,12.640533 6.6250053,12.6567095 L6.62876347,12.636448 Z"
        id="Path" fill="#FFFFFF"></path>
      <path
        d="M10.9884075,14.7960903 L10.9789304,14.7924955 L10.977133,14.8024628 C10.9286035,14.9853061 10.7462504,15.0951101 10.5687993,15.0488682 C10.3910214,15.002463 10.2856291,14.8165151 10.3338318,14.6338352 L10.3366096,14.6246849 L10.3268056,14.6227241 C10.1444526,14.5745215 10.0343218,14.3923318 10.0805636,14.2142271 C10.1269689,14.0367759 10.3130801,13.9315471 10.4955966,13.9790962 L10.504747,13.9822007 L10.5068712,13.9727236 C10.5545836,13.7903705 10.7375903,13.6797495 10.9150414,13.7263182 C11.0928193,13.7728868 11.1977214,13.9589981 11.1501723,14.1411878 L11.1473945,14.1503381 L11.1571985,14.1522989 C11.3393882,14.2005016 11.4496824,14.383018 11.4029503,14.5611228 C11.3567084,14.7382471 11.170924,14.8439661 10.9884075,14.7960903 Z M11.5815452,13.9121026 L11.5624276,13.9081811 L11.5681465,13.8893902 C11.6647152,13.5197821 11.4521333,13.1434746 11.0928193,13.0495202 C10.7330151,12.9552391 10.3629168,13.1786053 10.2663481,13.5478867 L10.2622631,13.5676579 L10.2436356,13.5612854 C9.87419091,13.4645533 9.49821021,13.6777887 9.40392909,14.0367759 C9.30981137,14.3960899 9.53285076,14.7663517 9.9022955,14.8634106 L9.92157656,14.8674956 L9.91569421,14.8859596 C9.8187987,15.2555678 10.0317074,15.6312217 10.3911848,15.7256662 C10.750989,15.8197839 11.1209239,15.5967445 11.217656,15.2271364 L11.2214142,15.2076919 L11.2400417,15.2137377 C11.6098132,15.3104698 11.9859573,15.0978879 12.080075,14.7379203 C12.1740293,14.3786063 11.95099,14.0086713 11.5815452,13.9121026 Z"
        id="Shape" fill="#FFFFFF"></path>
      <path
        d="M10.8202701,14.5174953 C10.7483746,14.5611228 10.6550739,14.5375933 10.6116098,14.4660246 C10.5683091,14.3942926 10.5920019,14.3009918 10.6635706,14.2573643 C10.7353027,14.2139003 10.8286034,14.2372663 10.8722309,14.3089984 C10.9150414,14.3812207 10.8920022,14.4746848 10.8202701,14.5174953 Z"
        id="Path" fill="#FFFFFF"></path>
      <path
        d="M10.8202701,14.5174953 L10.8096492,14.5000116 C10.7882439,14.5129201 10.7650413,14.5189659 10.7418387,14.5189659 C10.6972308,14.5189659 10.6537667,14.4962534 10.6290935,14.4554037 C10.6163484,14.4343253 10.6103026,14.411286 10.6103026,14.3882468 C10.6103026,14.3434755 10.6331784,14.299848 10.6741915,14.2746846 C10.6954334,14.2619395 10.718636,14.2558938 10.7416753,14.2558938 C10.7862831,14.2558938 10.8297472,14.2786062 10.8547472,14.3196193 C10.867329,14.3408611 10.8732113,14.3640638 10.8732113,14.3872664 C10.8732113,14.4320377 10.8506623,14.4755018 10.8098126,14.4998482 L10.8202701,14.5174953 L10.8307276,14.5349789 C10.8844858,14.5029528 10.9142244,14.4457632 10.9140617,14.3872664 C10.9140617,14.3570376 10.9062179,14.3263187 10.8897146,14.2985409 C10.8570348,14.2447826 10.8000086,14.2150441 10.7416753,14.2150441 C10.7114465,14.2150441 10.6807275,14.2230506 10.6529497,14.2398807 C10.5993549,14.2725604 10.5694529,14.32975 10.5694529,14.3882468 C10.5694529,14.4183122 10.5774594,14.4490312 10.5941261,14.4766456 C10.6264791,14.5299136 10.6835053,14.5598156 10.7418387,14.5598156 C10.7722308,14.5598156 10.8031132,14.551809 10.830891,14.5348155 L10.8202701,14.5174953 Z"
        id="Path" fill="#FFFFFF"></path>
    </g>
  </g>
</svg>