<svg viewBox="0 0 19.8488721 29.2800888" xmlns="http://www.w3.org/2000/svg">
  <g id="Page-1" stroke="none" stroke-width="1" fill="none" fill-rule="evenodd">
    <g id="house1" fill-rule="nonzero">
      <g id="Group" transform="translate(0, 2.9949)" fill="#087F5D">
        <polygon id="Path"
          points="19.5194601 7.2638947 15.521581 4.23709489 15.521581 1.40065472 13.5518082 1.40065472 13.5518082 2.74640743 10.8565446 0.70555612 9.92435434 0 8.99265425 0.70555612 0.329902225 7.2638947 -7.10542736e-15 7.5134047 1.74330205 9.25588976 18.1065504 9.25588976 19.8488721 7.5134047">
        </polygon>
      </g>
      <g id="Group" transform="translate(1.2704, 4.9263)" fill="#68BD45">
        <polygon id="Path" points="17.3256675 23.8843328 0 23.8843328 0 6.55866538 8.66275203 0 17.3256675 6.55866538">
        </polygon>
      </g>
      <g id="Group" transform="translate(0.5897, 0)" fill="#68BD45">
        <polygon id="Path"
          points="2.47941375 5.43252069 1.95196235 4.46765063 0.910948441 4.82516726 1.05147143 3.73431671 0 3.41225763 0.754412368 2.61193019 0.0937909247 1.73317132 1.17451074 1.52957639 1.15621008 0.429902305 2.15000172 0.900327518 2.78170157 0 3.30915297 0.964870053 4.34951328 0.607843624 4.2085001 1.69853077 5.26046172 2.02124345 4.50588596 2.82091729 5.1668342 3.69983956 4.08595098 3.9034345 4.10441505 5.00229158 3.1106234 4.53284676">
        </polygon>
      </g>
      <g id="Group" transform="translate(0.7997, 4.3363)" fill="#FFFFFF">
        <path
          d="M0.940360229,7.38121506 L0.940360229,24.0039408 L17.3264844,24.0039408 L17.3264844,7.38121506 L9.13350404,1.17941271 L0.940360229,7.38121506 Z M17.7964195,24.474366 L17.7964195,24.0039408 L17.7964195,24.474366 Z M0,24.9438108 L0,6.91438462 L9.13236025,0 L18.2660277,6.91405782 L18.2660277,24.9438108 L0,24.9438108 Z"
          id="Shape"></path>
      </g>
      <g id="Group" transform="translate(6.455, 16.5276)" fill="#FFFFFF">
        <path
          d="M4.68064129,0 C3.47198019,1.2081709 -0.370669944,3.87206192 0.0290035783,10.4415116 C0.965605635,10.4415116 0.607598812,10.4415116 0.607598812,10.4415116 C0.607598812,10.4415116 0.070016683,3.98349992 5.08358279,0.312745348 C5.08358279,0 4.68064129,0 4.68064129,0 Z"
          id="Path"></path>
      </g>
      <g id="Group" transform="translate(1.74, 18.8933)" fill="#FFFFFF">
        <path
          d="M13.7052397,8.03056198 C13.8514817,7.73758789 13.9877563,7.32402547 14.0645537,6.79069171 C14.0119393,7.22974435 13.9183118,7.65082311 13.7052397,8.03056198 Z M4.55948077,7.76275131 C4.5978795,7.55654199 4.67369655,7.30899278 4.74167046,7.00637815 C4.75882734,7.4021301 4.75425217,7.65686887 4.55948077,7.76275131 Z M15.3555678,7.71879702 C15.3555678,7.40654187 16.78302,6.06814211 15.7125943,4.37189892 C15.9804049,6.33562598 15.4001757,5.93415507 14.865208,8.07582345 C14.418639,7.04951544 14.6861229,5.75539676 15.2215808,3.21225747 C14.2679853,4.03366336 14.1951094,5.07565766 14.1256649,6.08513559 C14.173214,4.66585341 13.8192921,2.6384008 12.5005002,0 C13.8390634,2.67663613 13.3037688,7.09330633 12.5005002,8.03056198 C12.0099769,6.64739094 11.9315455,3.52434922 12.4557289,1.60653723 C11.3406953,3.83644098 11.965369,5.21961202 11.5638981,7.58464659 C10.8944532,6.95980949 11.0727213,6.11193299 10.8049106,4.77369663 C10.4477208,6.64804453 11.4297477,8.16422222 10.8496819,7.49510404 C10.2694527,6.82647605 10.3147141,5.53301096 10.1807271,4.64003639 C9.95736091,6.15686767 10.4487012,7.58464659 9.86814515,7.62909107 C10.0021322,7.04820825 10.0913479,5.53301096 9.51111872,4.14918633 C9.73448491,4.86307579 9.68987703,5.30931797 9.28807933,7.45065956 C8.9312163,6.69199882 9.02092225,5.08644198 9.37745848,3.30180003 C8.88693521,4.14918633 8.66340562,5.26520029 8.79706586,7.71879702 C8.44003943,7.3612804 8.57484346,6.33562598 8.21749023,4.86307579 C8.12892807,6.06814211 8.57484346,8.12026793 8.26209811,7.67402575 C8.21749023,6.96046308 7.90523508,4.23889228 6.52255424,2.90032912 C7.77157484,4.37189892 7.45360073,6.13350164 7.90523508,7.94183642 C7.98889528,8.27631381 7.54853545,8.38726161 7.41487521,7.71879702 C7.28137837,7.04951544 7.35311046,6.68660666 7.36977714,5.62140973 C7.0132409,6.82647605 7.50376417,8.2086667 7.05768538,7.3612804 C6.6111164,6.51307711 6.51667188,5.54918745 6.3882404,3.92712732 C6.12059313,5.04248769 6.96879642,7.71879702 6.47778296,7.54036551 C6.47778296,6.78203157 6.29902465,4.37189892 5.18415447,2.40947905 C5.80817458,4.23823868 6.6114432,8.56634672 5.62990646,7.85245726 C4.64853313,7.1385678 4.91078824,5.56650772 5.09461192,4.23889228 C4.97418699,4.56503633 4.89134378,4.87010194 4.833664,5.15376229 C4.78709533,4.77369663 4.69689918,4.35082047 4.54591867,3.87761748 C4.97876215,5.5549064 3.93807505,8.29379748 3.97892475,7.62909107 C4.02385943,6.91552841 4.15833666,6.29052791 4.33627798,5.17516754 C3.75653895,5.97876295 4.02418623,7.89657494 3.57778064,8.07582345 C3.88987239,7.00458077 4.24689882,4.59559191 3.22091761,1.82974003 C3.71176768,3.16781299 3.39967592,7.76275131 3.39967592,7.76275131 C2.84183234,7.20458093 2.90376049,4.71209527 2.90866246,3.65898986 C2.41764899,5.13121326 3.4442838,8.34298053 2.41797579,8.16422222 C2.90866246,7.27222804 2.41797579,4.86307579 1.57042609,1.29411868 C2.0831716,4.24428444 2.38447903,6.26830567 1.9722238,7.71879702 C0.950327558,6.05882838 0.23888908,2.53496935 0.811765355,0.58055602 C-0.212418471,2.74362965 0.291176704,4.98252033 1.07957603,7.45131315 C1.41487041,8.50098719 0.847549698,8.75409197 0,8.65768666 L0,9.58089002 L16.3861242,9.58089002 L16.3861242,5.21765123 C15.886614,6.26977626 16.0439671,7.63709761 15.3555678,7.71879702 Z M4.54591867,3.87761748 C4.5137291,3.75408797 4.47451338,3.63480683 4.42533034,3.52434922 C4.46944802,3.64526435 4.50931733,3.76242131 4.54591867,3.87761748 Z"
          id="Shape"></path>
      </g>
      <g id="Group" transform="translate(12.0457, 11.99)" fill="#FFFFFF">
        <path
          d="M2.74684236,3.86363181 C1.68883498,4.26444912 0.515794823,3.7541546 0.126415427,2.72457861 C-0.263290767,1.69565622 0.278212934,0.536668364 1.33573012,0.136341246 C2.3937375,-0.263495675 3.56743125,0.245818458 3.95697405,1.27539445 C4.34651684,2.30464363 3.80468634,3.46314129 2.74684236,3.86363181 Z"
          id="Path"></path>
      </g>
      <g id="Group" transform="translate(9.4467, 10.7582)" fill="#FFFFFF">
        <path
          d="M3.86395658,1.33593232 C4.2641203,2.3942665 3.75447937,3.56730665 2.72539358,3.95635925 C1.6954908,4.34639224 0.53682974,3.80439835 0.136339223,2.74655436 C-0.263497698,1.68887378 0.245816435,0.515506827 1.27555582,0.12629083 C2.30464161,-0.263251966 3.46346607,0.278578533 3.86395658,1.33593232 Z"
          id="Path"></path>
      </g>
      <g id="Group" transform="translate(8.215, 13.4396)" fill="#FFFFFF">
        <path
          d="M1.33581426,0.136536686 C2.39382164,-0.26395383 3.56735199,0.246667493 3.95705818,1.27493629 C4.34643758,2.30451228 3.80493388,3.46333673 2.7467631,3.86382725 C1.68891911,4.26431777 0.51587896,3.75402324 0.126499564,2.72510085 C-0.263370029,1.69585166 0.278133672,0.536863804 1.33581426,0.136536686 Z"
          id="Path"></path>
      </g>
      <g id="Group" transform="translate(10.8965, 14.5886)" fill="#FFFFFF">
        <path
          d="M0.136325589,2.74738188 C-0.263674731,1.6892111 0.246456396,0.516007549 1.27554219,0.125974557 C2.30495477,-0.263078042 3.46328903,0.279242654 3.86394295,1.33643304 C4.26476026,2.39444042 3.75430234,3.56731718 2.72456295,3.95718677 C1.69629416,4.34640277 0.537142903,3.80473567 0.136325589,2.74738188 Z"
          id="Path"></path>
      </g>
      <g id="Group" transform="translate(10.6217, 13.1648)" fill="#68BD45">
        <path
          d="M2.09888458,2.99890313 C1.29806695,3.30249814 0.403294992,2.89939324 0.101007169,2.09890241 C-0.202424446,1.29792137 0.20084385,0.403966411 1.00182488,0.100861593 C1.80231572,-0.202406623 2.69659748,0.201351869 2.9993755,1.00184271 C3.30215352,1.80184335 2.89953882,2.6967787 2.09888458,2.99890313 Z"
          id="Path"></path>
      </g>
      <g id="Group" transform="translate(10.0498, 12.593)" fill="#FFFFFF">
        <path
          d="M2.67075553,3.57075494 L2.46814099,3.03595059 C2.35261802,3.07974147 2.23627806,3.09983953 2.12157209,3.10000293 C1.9251667,3.10016632 1.73235609,3.03970876 1.57140825,2.93039495 C1.41029701,2.82075434 1.28251913,2.66585225 1.20784587,2.46879327 L1.20964325,2.47353184 L1.20768247,2.46813968 C1.16389158,2.35261671 1.14379353,2.23644014 1.14379353,2.12173417 C1.14363013,1.92549218 1.20392429,1.73284497 1.31340151,1.57189713 C1.42320552,1.41078589 1.5784344,1.28268121 1.77614697,1.20751775 C1.89150654,1.16389027 2.00735631,1.14379221 2.12189889,1.14379221 C2.31814087,1.14362881 2.51095148,1.20408638 2.67206272,1.31356359 C2.83333736,1.4233676 2.96144204,1.57859648 3.0364421,1.77598226 C3.07990619,1.89134183 3.10000424,2.00719159 3.10000424,2.12189757 C3.10016764,2.31830295 3.03987348,2.51111357 2.93055966,2.67222481 C2.82091905,2.83317265 2.66585357,2.96111393 2.46879459,3.03578719 L2.46814099,3.03595059 L2.67075553,3.57075494 L2.87287988,4.10588608 C3.29559263,3.94640883 3.64118115,3.66274847 3.87712905,3.31421878 C4.11340375,2.96552569 4.24379645,2.55114628 4.24379645,2.12189757 C4.24395941,1.87189737 4.19918813,1.6171586 4.1062142,1.37124337 C3.94657355,0.948694015 3.66291319,0.603268902 3.3143835,0.367157602 C2.96585381,0.130719504 2.55131099,0.000163844435 2.12189889,0 C1.87189869,-0.000162953212 1.61699652,0.0446083244 1.37108129,0.137909053 C0.948531934,0.297549703 0.603106821,0.581046662 0.366832122,0.929412954 C0.130557423,1.27794264 0,1.69232206 0,2.12173417 C-0.000325034472,2.37206117 0.0447730408,2.62729013 0.13791037,2.87353216 L0.13791037,2.87287856 C0.297060824,3.29542792 0.580721182,3.64101643 0.929250873,3.87696433 C1.27761716,4.11323903 1.69215998,4.24363129 2.12157209,4.24379469 C2.37189909,4.24379469 2.62729145,4.19902341 2.87353347,4.10555929 L2.87287988,4.10588608 L2.67075553,3.57075494 Z"
          id="Path"></path>
      </g>
    </g>
  </g>
</svg>