<svg viewBox="0 0 32 32"  role="presentation">
    <g  stroke="none" stroke-width="1" fill="none" fill-rule="evenodd">
        <g id="person_FILL0_wght400_GRAD0_opsz48" transform="translate(0.000000, 0.950000)" fill="#000000" fill-rule="nonzero">
            <path d="M16,15 C13.8,15 12,14.3 10.6,12.9 C9.2,11.5 8.5,9.7 8.5,7.5 C8.5,5.3 9.2,3.5 10.6,2.1 C12,0.7 13.8,0 16,0 C18.2,0 20,0.7 21.4,2.1 C22.8,3.5 23.5,5.3 23.5,7.5 C23.5,9.7 22.8,11.5 21.4,12.9 C20,14.3 18.2,15 16,15 L16,15 Z M0,31.05 L0,26.35 C0,25.0833333 0.316666667,24 0.95,23.1 C1.58333333,22.2 2.4,21.5166667 3.4,21.05 C5.63333333,20.05 7.775,19.3 9.825,18.8 C11.875,18.3 13.9333333,18.05 16,18.05 C18.0666667,18.05 20.1166667,18.3083333 22.15,18.825 C24.1833333,19.3416667 26.3166667,20.0833333 28.55,21.05 C29.5833333,21.5166667 30.4166667,22.2 31.05,23.1 C31.6833333,24 32,25.0833333 32,26.35 L32,31.05 L0,31.05 Z M3,28.05 L29,28.05 L29,26.35 C29,25.8166667 28.8416667,25.3083333 28.525,24.825 C28.2083333,24.3416667 27.8166667,23.9833333 27.35,23.75 C25.2166667,22.7166667 23.2666667,22.0083333 21.5,21.625 C19.7333333,21.2416667 17.9,21.05 16,21.05 C14.1,21.05 12.25,21.2416667 10.45,21.625 C8.65,22.0083333 6.7,22.7166667 4.6,23.75 C4.13333333,23.9833333 3.75,24.3416667 3.45,24.825 C3.15,25.3083333 3,25.8166667 3,26.35 L3,28.05 Z M16,12 C17.3,12 18.375,11.575 19.225,10.725 C20.075,9.875 20.5,8.8 20.5,7.5 C20.5,6.2 20.075,5.125 19.225,4.275 C18.375,3.425 17.3,3 16,3 C14.7,3 13.625,3.425 12.775,4.275 C11.925,5.125 11.5,6.2 11.5,7.5 C11.5,8.8 11.925,9.875 12.775,10.725 C13.625,11.575 14.7,12 16,12 Z" id="Shape"></path>
        </g>
    </g>
</svg>