<svg viewBox="0 0 512.0 448.0"  role="presentation">
  <defs>
    <clipPath id="451041175310912012112111295">
      <path
        d="M293.687,120.232596 C317.092,-20.1354038 538.042,-53.8854038 509.452,107.227596 C480.839,268.392596 320.987,404.865596 272.919,436.035596 C224.821,467.204596 180.962,423.559596 165.062,390.544596 C146.845,352.899596 92.271,148.822596 77.977,131.921596 C63.682,115.018596 20.797,148.822596 20.797,148.822596 L0,121.550596 C0,121.550596 87.085,17.5625962 153.344,4.55659618 C223.606,-9.23840382 223.503,112.440596 240.402,179.991596 C256.751,245.330596 267.727,282.714596 281.996,282.714596 C296.292,282.714596 323.593,246.280596 353.472,190.418596 C383.405,134.501596 352.182,85.1145962 293.687,120.232596 Z">
      </path>
    </clipPath>
  </defs>
  <g transform="translate(0.0 0.6344038213876502)">
    <g clip-path="url(#451041175310912012112111295)">
      <polygon points="0,0 511.999957,0 511.999957,446.731042 0,446.731042 0,0" stroke="none"></polygon>
    </g>
  </g>
</svg>