<svg viewBox="0 0 511.0 497.0"  role="presentation">
  <defs>
    <clipPath id="114106991021131225148110108">
      <path
        d="M417.596,235.024 C469.114,235.024 510.926,276.837 510.926,328.378 L510.926,403.42 C510.926,454.912 469.114,496.774 417.597,496.774 L93.304,496.774 C41.762,496.774 0,454.912 0,403.42 L0,328.378 C0,276.837 41.762,235.024 93.304,235.024 L417.596,235.024 Z M393.505,313.715 C381.929,313.715 372.548,317.235 365.214,324.293 C357.879,331.329 354.235,340.559 354.235,351.71 L354.235,409.763 C354.235,422.239 357.603,432.04 364.214,439.102 C370.851,446.261 379.983,449.754 391.557,449.754 C404.431,449.754 414.135,446.435 420.573,439.775 C427.108,433.039 430.326,423.058 430.326,409.761 L430.326,403.176 L403.733,403.176 L403.733,409.013 C403.733,416.647 402.835,421.564 401.164,423.808 C399.442,426.052 396.448,427.175 392.158,427.175 C388.041,427.175 385.123,425.876 383.401,423.235 C381.705,420.565 380.88,415.825 380.88,409.013 L380.88,384.713 L430.325,384.713 L430.325,351.71 C430.325,339.41 427.134,330.057 420.796,323.494 C414.461,316.982 405.354,313.715 393.505,313.715 Z M198.939,316.931 L173.094,316.931 L173.094,425.053 C173.094,432.788 174.615,438.45 177.609,442.343 C180.653,446.259 185.118,448.13 191.13,448.13 C195.97,448.13 201.009,446.832 206.149,444.014 C211.313,441.269 216.277,437.279 221.043,432.038 L221.043,446.259 L246.914,446.259 L246.914,316.934 L221.043,316.934 L221.042,415.152 C218.622,417.945 215.978,420.241 213.033,422.135 C210.14,423.931 207.695,424.805 205.824,424.805 C203.429,424.805 201.658,424.181 200.535,422.735 C199.512,421.387 198.939,419.192 198.939,416.15 L198.939,316.931 Z M292.467,270.953 L266.322,270.953 L266.322,446.26 L292.467,446.26 L292.467,436.358 C295.835,440.348 299.576,443.193 303.543,445.089 C307.46,447.008 311.951,447.882 317.04,447.882 C324.675,447.882 330.561,445.512 334.577,440.597 C338.669,435.659 340.666,428.672 340.666,419.569 L340.666,347.794 C340.666,337.167 338.545,329.106 334.228,323.597 C329.913,318.08 323.676,315.361 315.469,315.361 C311.452,315.361 307.486,316.359 303.543,318.429 C299.65,320.474 295.96,323.492 292.467,327.409 L292.467,270.953 Z M161.742,270.955 L72.329,270.955 L72.329,296.427 L102.466,296.427 L102.466,446.261 L131.58,446.261 L131.58,296.427 L161.742,296.427 L161.742,270.955 Z M303.295,335.87 C306.737,335.87 309.456,336.994 311.327,339.237 C313.173,341.483 314.047,344.8 314.047,349.216 L314.047,415.95 C314.047,420.14 313.298,423.058 311.825,424.881 C310.329,426.727 308.034,427.676 304.84,427.676 C302.645,427.676 300.6,427.177 298.604,426.229 C296.608,425.381 294.563,423.734 292.467,421.689 L292.467,341.108 C294.238,339.313 295.985,337.991 297.805,337.117 C299.602,336.319 301.45,335.87 303.295,335.87 Z M392.405,336.319 C396.347,336.319 399.265,337.491 401.012,339.912 C402.783,342.158 403.732,346.099 403.732,351.538 L403.732,364.559 L380.88,364.559 L380.88,351.538 C380.88,346.099 381.731,342.158 383.551,339.912 C385.371,337.491 388.29,336.319 392.405,336.319 Z M252.675,47.076 C264.699,47.076 274.555,50.519 282.288,57.404 C289.922,64.265 293.766,73.221 293.766,84.048 L293.766,157.644 C293.766,169.818 290.022,179.348 282.514,186.333 C274.929,193.244 264.551,196.711 251.328,196.711 C238.604,196.711 228.401,193.119 220.767,185.959 C213.159,178.774 209.316,169.168 209.316,157.069 L209.316,83.225 C209.316,72.148 213.259,63.392 221.042,56.881 C228.875,50.32 239.453,47.076 252.675,47.076 Z M346.452,50.668 L346.452,159.888 C346.452,163.256 347.127,165.676 348.3,167.173 C349.496,168.695 351.518,169.444 354.237,169.444 C356.359,169.444 359.102,168.446 362.372,166.45 C365.615,164.429 368.608,161.91 371.327,158.817 L371.327,50.668 L400.441,50.668 L400.441,193.119 L371.327,193.119 L371.327,177.352 C365.989,183.14 360.425,187.606 354.588,190.624 C348.776,193.617 343.162,195.214 337.724,195.214 C330.938,195.214 325.923,193.019 322.506,188.753 C319.088,184.586 317.366,178.224 317.366,169.742 L317.364,50.668 L346.452,50.668 Z M130.058,0 L151.313,77.212 L153.384,77.212 L173.667,0 L206.947,0 L168.827,113.012 L168.827,193.119 L136.07,193.119 L136.07,116.604 L97.053,0 L130.058,0 Z M251.23,71.749 C247.713,71.749 244.819,72.698 242.574,74.594 C240.379,76.564 239.256,79.059 239.256,82.178 L239.256,159.764 C239.256,163.681 240.329,166.674 242.375,168.796 C244.442,171.015 247.412,172.038 251.228,172.038 C255.196,172.038 258.314,170.94 260.633,168.77 C262.954,166.575 264.153,163.556 264.153,159.764 L264.153,82.178 C264.153,79.059 262.956,76.564 260.585,74.594 C258.215,72.698 255.097,71.749 251.23,71.749 Z">
      </path>
    </clipPath>
  </defs>
  <g clip-path="url(#114106991021131225148110108)">
    <polygon points="0,0 510.926,0 510.926,496.774 0,496.774 0,0" stroke="none"></polygon>
  </g>
</svg>